<svg xmlns="http://www.w3.org/2000/svg" width="77.23" height="55.24" viewBox="0 0 77.23 55.24" class="" style="max-width: 28px; min-width: 28px; height: auto;"><path fill="#b5a3de" d="M15.19 55.18a15.12 15.12 0 01-3.97-.53A15.45 15.45 0 01.52 35.87l6.42-24.39a15.28 15.28 0 017.15-9.46A14.98 14.98 0 0125.52.52a15.23 15.23 0 019.5 7.76h7.16A15.14 15.14 0 0151.7.53a14.98 14.98 0 0111.44 1.5 15.37 15.37 0 017.15 9.4l6.43 24.44A15.45 15.45 0 0165.97 54.7a14.98 14.98 0 01-11.44-1.5 15.28 15.28 0 01-7.15-9.4l-.5-2.43H30.33l-.63 2.38a15.28 15.28 0 01-7.15 9.4 15.06 15.06 0 01-7.36 2.02zm6.4-49.66a9.63 9.63 0 00-4.75 1.27 9.93 9.93 0 00-4.58 6.05L5.85 37.22a9.93 9.93 0 006.84 12.11 9.46 9.46 0 007.23-.94 9.77 9.77 0 004.58-6.04l1.7-6.48h24.83l1.69 6.48a9.88 9.88 0 004.58 6.04 9.55 9.55 0 007.25.94 9.88 9.88 0 006.81-12.1l-6.42-24.4a9.8 9.8 0 00-4.55-6.04 9.55 9.55 0 00-7.26-.94 9.8 9.8 0 00-6.54 6.13l-.66 1.82H31.3l-.66-1.82a9.82 9.82 0 00-6.57-6.13 9.6 9.6 0 00-2.48-.33z"></path><path fill="#b5a3de" d="M22.06 27.6a5.52 5.52 0 115.51-5.53 5.52 5.52 0 01-5.51 5.52zm0-5.53zm35.86-5.51a2.76 2.76 0 11-2.76-2.76 2.76 2.76 0 012.76 2.76zm0 11.04a2.76 2.76 0 11-2.76-2.77 2.76 2.76 0 012.76 2.76zm-5.52-5.53a2.76 2.76 0 11-2.76-2.75 2.76 2.76 0 012.76 2.75zm11.04 0a2.76 2.76 0 11-2.76-2.75 2.76 2.76 0 012.76 2.75z"></path></svg>