<svg xmlns="http://www.w3.org/2000/svg" width="71.02" height="56.36" viewBox="0 0 71.02 56.36" class="" style="max-width: 23px; min-width: 23px; height: auto;"><path fill="#b5a3de" d="M26.68 56.33a6.21 6.21 0 01-1.63-.22 6.35 6.35 0 01-4.4-7.71l2.64-10.02a6.28 6.28 0 012.94-3.89 6.15 6.15 0 014.7-.61 6.26 6.26 0 013.9 3.18h2.94a6.22 6.22 0 013.9-3.18 6.15 6.15 0 014.7.61 6.31 6.31 0 012.94 3.87l2.64 10.04a6.35 6.35 0 01-4.4 7.74 6.15 6.15 0 01-4.7-.61 6.28 6.28 0 01-2.94-3.87l-.2-1h-6.8l-.26.98a6.28 6.28 0 01-2.94 3.86 6.19 6.19 0 01-3.03.83zm2.63-20.4a3.96 3.96 0 00-1.95.52 4.08 4.08 0 00-1.88 2.48l-2.64 10.02a4.08 4.08 0 002.81 4.98 3.89 3.89 0 002.97-.39 4.01 4.01 0 001.88-2.48l.7-2.66h10.2l.7 2.66a4.06 4.06 0 001.87 2.48 3.92 3.92 0 002.98.39 4.06 4.06 0 002.8-4.98l-2.64-10.01a4.02 4.02 0 00-1.87-2.49 3.92 3.92 0 00-2.98-.38 4.02 4.02 0 00-2.68 2.51l-.27.75H33.3l-.27-.75a4.04 4.04 0 00-2.7-2.51 3.94 3.94 0 00-1.02-.14z"></path><path fill="#b5a3de" d="M29.5 45a2.27 2.27 0 112.27-2.27A2.27 2.27 0 0129.5 45zm0-2.27zm14.74-2.27a1.13 1.13 0 11-1.14-1.13 1.13 1.13 0 011.14 1.13zm0 4.54a1.13 1.13 0 11-1.14-1.14A1.13 1.13 0 0144.24 45zm-2.27-2.27a1.13 1.13 0 11-1.13-1.13 1.13 1.13 0 011.13 1.13zm4.53 0a1.13 1.13 0 11-1.13-1.13 1.13 1.13 0 011.13 1.13z"></path><path fill="#b5a3de" fill-rule="evenodd" d="M14.88 10.82a4.06 4.06 0 104.06 4.06 4.06 4.06 0 00-4.06-4.06zm-1.35 4.06a1.35 1.35 0 101.35-1.36 1.35 1.35 0 00-1.35 1.36z"></path><path fill="#b5a3de" d="M5.41 14.88a9.47 9.47 0 019.47-9.47v2.7a6.76 6.76 0 00-6.76 6.77zm9.47 6.76a6.76 6.76 0 006.76-6.76h2.7a9.47 9.47 0 01-9.46 9.47z"></path><path fill="#b5a3de" fill-rule="evenodd" d="M14.88 0a14.88 14.88 0 1014.88 14.88A14.88 14.88 0 0014.88 0zM2.7 14.88A12.17 12.17 0 1014.88 2.7 12.17 12.17 0 002.7 14.88z"></path><g fill="#b5a3de"><path d="M68.06 0H38.47a2.96 2.96 0 00-2.96 2.96v22.2a2.96 2.96 0 002.96 2.95h29.6a2.96 2.96 0 002.95-2.96V2.95A2.96 2.96 0 0068.06 0zM54.75 19.85l5.3 5.3h-5.3zm0-16.9h3.08L68.06 13.2v6.17L54.75 6.05zM68.06 9l-6.04-6.04h6.04zm-29.6-6.04H51.8v22.2H38.47zm25.78 22.2l-9.5-9.5v-5.43l13.32 13.32v1.6zm0 0"></path><path d="M44.39 19.24H42.9a1.48 1.48 0 000 2.95h1.48a1.48 1.48 0 100-2.95zm0 0"></path></g></svg>