<svg xmlns="http://www.w3.org/2000/svg" width="71.02" height="56.23" viewBox="0 0 71.02 56.23" class="" style="max-width: 26px; min-width: 26px; height: auto;"><path fill="#b5a3de" d="M65.1 0H5.92A5.92 5.92 0 000 5.92V50.3a5.92 5.92 0 005.92 5.92H65.1a5.92 5.92 0 005.92-5.92V5.9A5.92 5.92 0 0065.1 0zM38.47 39.7l10.61 10.6H38.47zm0-33.78h6.17L65.1 26.38v12.34L38.47 12.1zM65.1 18.01L53.01 5.91H65.1zM5.91 5.91h26.64v44.4H5.92zm51.54 44.4L38.47 31.33V20.46L65.1 47.09v3.22zm0 0"></path><path fill="#b5a3de" d="M17.75 38.47H14.8a2.96 2.96 0 100 5.92h2.95a2.96 2.96 0 100-5.92zm0 0"></path></svg>