<svg xmlns="http://www.w3.org/2000/svg" width="61.65" height="61.65" viewBox="0 0 61.65 61.65" class="" style="max-width: 23px; min-width: 23px; height: auto;"><path fill="#b5a3de" fill-rule="evenodd" d="M30.83 22.42a8.4 8.4 0 108.4 8.4 8.4 8.4 0 00-8.4-8.4zm-2.8 8.4a2.8 2.8 0 102.8-2.8 2.8 2.8 0 00-2.81 2.8z"></path><path fill="#b5a3de" d="M11.2 30.83A19.62 19.62 0 0130.84 11.2v5.6A14.01 14.01 0 0016.8 30.83zm19.63 14.01a14.01 14.01 0 0014-14.01h5.6a19.62 19.62 0 01-19.6 19.61z"></path><path fill="#b5a3de" fill-rule="evenodd" d="M30.83 0a30.83 30.83 0 1030.82 30.83A30.82 30.82 0 0030.83 0zM5.6 30.83A25.22 25.22 0 1030.83 5.6 25.22 25.22 0 005.6 30.83z"></path></svg>