<?xml version="1.0" encoding="UTF-8" standalone="no"?>
<svg width="800px" height="800px" viewBox="0 0 32 32" version="1.1" xmlns="http://www.w3.org/2000/svg">
    
    <title>arrow-down-circle</title>
    <desc>Created with Sketch Beta.</desc>
    <defs></defs>
    
    <g fill="black"> 
        <!-- Black circular background -->
        <circle cx="16" cy="16" r="16"/>
    </g>

    <g fill="white">
        <!-- White arrow -->
        <path d="M22.535 16.88L16.879 22.54C16.639 22.78 16.311 22.85 16 22.79C15.689 22.85 15.361 22.78 15.121 22.54L9.465 16.88C9.074 16.49 9.074 15.86 9.465 15.46C9.855 15.07 10.488 15.07 10.879 15.46L15 19.59V9C15 8.45 15.448 8 16 8C16.553 8 17 8.45 17 9V19.59L21.121 15.46C21.512 15.07 22.146 15.07 22.535 15.46C22.926 15.86 22.926 16.49 22.535 16.88Z"/>
    </g>
</svg>
