<svg fill="none" height="14" viewBox="0 0 36 14" width="36" xmlns="http://www.w3.org/2000/svg"><g fill="#3c4043"><path d="m16.654 6.80899v4.12771h-1.3099v-10.193017h3.4727c.8801 0 1.6306.293377 2.2446.880117.6277.58675.9415 1.30312.9415 2.14912 0 .86648-.3138 1.58285-.9415 2.16277-.6072.57992-1.3577.86647-2.2446.86647h-2.1628zm0-4.80994v3.55457h2.1901c.5185 0 .9551-.17738 1.2963-.52534.3479-.34795.5253-.77095.5253-1.24854 0-.47076-.1774-.88693-.5253-1.23489-.3412-.36159-.771-.53898-1.2963-.53898h-2.1901z"/><path d="m25.4279 3.73192c.9688 0 1.7329.25926 2.2924.77778.5594.51851.8392 1.22807.8392 2.12865v4.29825h-1.2486v-.96882h-.0546c-.539.79822-1.2622 1.19392-2.1627 1.19392-.771 0-1.4123-.2251-1.9308-.6822-.5186-.4571-.7778-1.02341-.7778-1.70567 0-.7232.2729-1.2963.8187-1.7193.5458-.42983 1.2758-.64133 2.1832-.64133.7778 0 1.4191.14328 1.9172.42983v-.3002c0-.45711-.1774-.83918-.539-1.15984s-.7846-.47758-1.269-.47758c-.73 0-1.3099.30701-1.7329.92787l-1.1531-.7232c.6345-.92105 1.5761-1.37816 2.8178-1.37816zm-1.692 5.06237c0 .34113.1432.62768.4366.85283.2866.22515.6277.34113 1.0166.34113.5526 0 1.0438-.20468 1.4737-.61403.4298-.40936.6481-.88694.6481-1.43957-.4093-.32067-.9756-.48441-1.7056-.48441-.5322 0-.9757.12963-1.3304.38207-.3616.26608-.539.58674-.539.96198z"/><path d="m35.6823 3.95708-4.3665 10.04292h-1.3509l1.6238-3.5137-2.8792-6.52922h1.426l2.074 5.00779h.0273l2.0195-5.00779z"/></g><path d="m11.4436 5.97659c0-.4271-.0382-.83577-.1092-1.22876h-5.49083v2.25146l3.16228.00069c-.12826.74912-.54103 1.38772-1.17349 1.81345v1.46067h1.88236c1.09908-1.0172 1.72888-2.52091 1.72888-4.29751z" fill="#4285f4"/><path d="m7.83305 8.81346c-.52398.35341-1.19874.56014-1.98812.56014-1.52485 0-2.81842-1.02749-3.28167-2.41248h-1.941716v1.50643c.961986 1.90895 2.939176 3.21895 5.223386 3.21895 1.57876 0 2.90507-.5192 3.87047-1.413z" fill="#34a853"/><path d="m2.38041 5.84356c0-.38889.06481-.76481.18284-1.11822v-1.50644h-1.941711c-.397758.78938-.621539 1.68041-.621539 2.62466s.224463 1.83528.621539 2.62466l1.941711-1.50643c-.11803-.35341-.18284-.72934-.18284-1.11823z" fill="#fabb05"/><path d="m5.84493 2.31285c.8617 0 1.63334.29678 2.2426.87671l1.66813-1.66677c-1.01316-.943565-2.33402-1.52280526-3.91073-1.52280526-2.28352 0-4.2614 1.30994526-5.223386 3.21890526l1.941716 1.50644c.46325-1.38499 1.75682-2.41248 3.28167-2.41248z" fill="#e94235"/></svg>