<svg fill="none" height="14" viewBox="0 0 34 14" width="34" xmlns="http://www.w3.org/2000/svg"><path d="m6.65761 0c-.55672.0266691-1.24417.380942-1.63687.878988-.36003.429372-.66791 1.126692-.5899 1.781412.62873.05468 1.25719-.32786 1.64989-.81257.38671-.49805.64222-1.165767.57688-1.84783zm5.34429 1.33216v10.00094h1.5834v-3.33366h2.1669c1.9889 0 3.417-1.38346 3.417-3.33364s-1.4021-3.33364-3.3649-3.33364zm1.5834 1.33345h1.8335c1.3648 0 2.1669.73674 2.1669 2.00019s-.7954 2.00018-2.1669 2.00018h-1.8335zm-7.00061.33337c-.91675 0-1.57215.50004-2.00019.50004-.4347 0-1.08343-.49353-1.8335-.49353-.91675 0-1.814597.57545-2.287975 1.41419-.972757 1.67682-.252523 4.15916.687565 5.52395.46071.67607 1.01702 1.38947 1.76709 1.38947.6874-.026.92009-.4167 1.75016-.4167.83608 0 1.08344.4167 1.83351.4167s1.20417-.6874 1.66421-1.36342c.52539-.76674.74001-1.5142.75268-1.55353-.01267-.01267-1.45165-.56522-1.46498-2.22938-.01267-1.39079 1.1343-2.05397 1.18631-2.09264-.64873-.96142-1.72152-1.09515-1.97154-1.09515zm16.21761 1.00009c-1.6594 0-2.8859.93039-2.9312 2.20984h1.4064c.116-.60806.6912-1.0066 1.4793-1.0066.9554 0 1.4949.43756 1.4949 1.2423l.0013.55474-1.9546.10287c-1.8142.10735-2.7958.83628-2.7958 2.10306 0 1.27942 1.0135 2.12912 2.4663 2.12912.9815 0 1.8922-.4878 2.3049-1.2605h.0326v1.1837h1.4454v-4.91456c.0007-1.42613-1.1606-2.34397-2.9495-2.34397zm3.5342 0 2.6721 7.30013-.1432.4441c-.2414.7527-.6321 1.0417-1.3295 1.0417-.1194 0-.3453-.012-.4493-.0247v1.2032c.1053.0234.472.0365.586.0365 1.5381 0 2.2621-.5787 2.8948-2.3349l2.7698-7.66603h-1.603l-1.8583 5.92373h-.0325l-1.8583-5.92373zm-2.0835 4.00037-.0052.57818c0 .92475-.8008 1.58348-1.8596 1.58348-.8327 0-1.3621-.39219-1.3621-.99358 0-.62073.5104-.98182 1.4858-1.03916z" fill="#000"/></svg>