<svg height="40" viewBox="0 0 90 40" width="90" xmlns="http://www.w3.org/2000/svg"><path d="m0 28.57 5.13-3.83c3.59 3.13 6.1 3.58 8.2 3.58 2.4 0 4.63-.51 4.93-1.87.23-1.08-.67-1.95-2.72-2.43a195.4 195.4 0 0 1 -6.45-1.54c-5.9-1.55-7.58-4.98-7.58-8.06 0-4.25 3.96-8.62 11.19-8.62a17.7 17.7 0 0 1 11.76 4.25l-4.85 3.62c-2.29-1.97-5.24-2.35-6.87-2.35-1.64 0-3.36.47-3.63 1.65-.25 1.15.8 2.03 2.65 2.54 2.08.55 4 1.05 6.9 1.89 4.36 1.24 7.35 3.12 7.35 7.5 0 6.02-5.34 9.13-12.52 9.13-7.16 0-12.02-3.73-13.49-5.46m28.17-28.57h1.67v39.47h-1.67zm5.59 33.24v-27.02h21.61v6.18h-14.03v4.31h9.94v5.95h-9.94v4.35h14.42v6.23zm24.84-33.24h1.68v39.47h-1.68zm5.6 33.24v-27h15.87c4.56 0 8.26 2.66 8.26 6.83 0 3.3-2.04 5.24-3.88 5.97 0 0-.12.03-.31.05.2.01.31.04.31.04 3.2 1.02 5.5 3.34 5.5 6.84 0 4.47-3.76 7.27-8.4 7.27zm7.63-6h7.4a2.4 2.4 0 0 0 2.38-2.47 2.4 2.4 0 0 0 -2.38-2.45h-7.4zm0-10.65h6.04c1.4 0 2.53-1.1 2.53-2.37s-1.12-2.37-2.53-2.37h-6.04z"/></svg>