<svg height="125pt" preserveAspectRatio="xMidYMid meet" viewBox="0 0 551 125" width="551pt" xmlns="http://www.w3.org/2000/svg"><g transform="matrix(.1 0 0 -.1 0 125)"><path d="m0 635v-615h120 120v250 251l92-3 92-3 141-247 140-247 138-1c75 0 137 2 137 5s-64 117-141 253c-78 136-143 250-145 253-2 4 22 19 54 35 73 36 147 105 179 167 44 88 46 243 4 325-44 85-146 157-259 181-32 7-173 11-362 11h-310zm637 385c55-25 83-70 83-135 0-60-25-106-72-132-28-15-63-19-220-21l-188-4v156 156h178c153 0 183-3 219-20z"/><path d="m3820 625v-605h115 115v605 605h-115-115z"/><path d="m5092 663c3-466 3-468 26-515 26-53 88-113 138-134 22-9 72-14 144-14h110v100 100h-64c-49 0-69 5-90 21l-26 20v235 234h90 90v95 95h-90-90v115 115h-121-120z"/><path d="m1288 901c-81-27-136-61-195-123-60-65-88-115-108-200-54-228 45-447 245-542 62-30 70-31 195-31 112 0 138 3 188 24 70 28 163 110 200 178l26 49-80 47c-44 26-84 47-88 47s-21-20-39-44c-40-58-94-93-160-106-59-11-101-5-152 21-60 30-120 109-120 159 0 20 4 20 330 20h330v84c0 192-89 334-255 407-71 32-236 37-317 10zm270-195c26-18 51-47 67-80l26-51-222-3c-122-1-224 0-227 3-14 14 58 103 108 133 51 31 60 33 131 30 64-3 82-7 117-32z"/><path d="m3101 905c-129-36-248-131-297-238-35-78-50-198-35-289 39-237 214-378 470-378 150 0 250 36 347 123 56 51 94 115 119 201 21 73 16 237-9 306-41 113-150 218-273 262-76 28-244 34-322 13zm244-224c140-62 186-249 92-373-67-88-208-121-303-71-52 28-108 90-124 138-20 60-8 167 23 214 71 107 194 143 312 92z"/><path d="m1853 886c3-7 83-205 178-440l173-427 109 3 109 3 169 415c93 228 172 425 175 438l6 23-122-3-123-3-106-282c-58-155-109-279-112-275-4 4-53 132-110 285l-104 277h-124c-100 0-122-3-118-14z"/><path d="m4170 627c0-154 5-299 11-332 22-122 87-206 198-259 64-30 71-31 201-31 127 0 139 2 195 28 111 52 182 143 204 262 6 33 11 178 11 332v273h-114-115l-3-272c-3-261-4-275-26-315-32-60-86-86-167-81-72 4-113 29-141 85-17 34-19 68-22 311l-3 272h-115-114z"/></g></svg>