<svg height="25" viewBox="0 0 130 25" width="130" xmlns="http://www.w3.org/2000/svg" xmlns:xlink="http://www.w3.org/1999/xlink"><mask id="a" fill="#fff"><path d="m.03.02h6.72v11.06h-6.72z" fill="#fff" fill-rule="evenodd"/></mask><g fill="#124d9b" fill-rule="evenodd"><path d="m68.81 10.32c-.85.38-1.68.82-2.52 1.21-.2.1-.23.21-.23.4v9.24c0 .24.01.34.29.2 1.5-.75 3.02-1.5 4.43-2.41a5.81 5.81 0 0 0 2.87-4.8c.06-1.15-.1-2.25-.9-3.15-.9-1.05-2.48-1.33-3.94-.69"/><path d="m4.28 2.37c-1.43-.71-2.96-1.25-4.25-2.35v8.84c0 1.58.99 2.42 2.56 2.18.63-.1 1.2-.35 1.75-.66 1.71-.93 2.42-2.43 2.41-4.32 0-1.78-.91-2.93-2.47-3.7" mask="url(#a)" transform="translate(56.43 13.8)"/><path d="m58.43 11.27c1.12.85 2.38 1.47 3.66 2.04.34.19.7.35 1.06.48l.03-.06v-9.18c0-.22 0-.46-.2-.64a49 49 0 0 0 -.06-.09c0-.2-.14-.29-.3-.36-.38-.27-.8-.26-1.25-.2-.27.01-.53.1-.78.2a7.32 7.32 0 0 0 -2.63 1.92 3.85 3.85 0 0 0 .47 5.89m11.59-4.52c.28-.14.52-.33.75-.53a3.57 3.57 0 0 0 .84-4.52c-.83-1.42-2.5-1.98-4.18-1.4-.82.28-1.27.85-1.34 1.7l-.03.67v5.96l2.91-1.34c.36-.17.7-.35 1.05-.54m34.92 2.2c-.23-.23-.67-.04-1.02-.08-.25-.02-.31.07-.31.31v5l-.22-.32c-.94-1.37-1.92-2.72-2.78-4.13-.43-.69-.9-.97-1.69-.87-.27.04-.36.08-.36.37.02 2.02 0 4.04.01 6.06 0 .34-.12.8.05 1 .2.22.67.03 1.02.07.27.03.32-.08.32-.33v-4.63c0-.1-.04-.2.06-.32l.15.22c.95 1.4 1.94 2.76 2.83 4.2.41.65.85.99 1.64.86.27-.04.37-.07.37-.37-.02-2.03 0-4.06-.01-6.09 0-.33.14-.77-.06-.96m-57.25-.07c-.27.02-.54.02-.81 0-.25-.02-.34.05-.33.32.02.67 0 1.35 0 2.03-.01.86.05 1.72-.04 2.58-.06.55-.26 1.05-.82 1.26-.65.23-1.3.25-1.9-.18-.4-.3-.48-.76-.55-1.2a.06.06 0 0 0 0-.07v-1.73l-.02-2.94c.02-.04 0-.04-.03-.04-.4 0-.79-.01-1.18-.03-.15 0-.18.07-.18.2 0 1.65-.03 3.3.03 4.94a2.63 2.63 0 0 0 1.98 2.4c.35.11.72.13 1.1.15-.13.25-.28.46-.38.7-.27.66.06 1.21.77 1.3.35.04.69 0 1.01-.13.56-.22.55-.21.35-.77-.09-.24-.17-.35-.43-.2-.15.08-.34.11-.48-.04s-.09-.34-.02-.52.2-.32.34-.43c.2-.15.4-.3.6-.43.8-.52 1.2-1.29 1.22-2.23.02-1.56 0-3.12.01-4.69 0-.18-.04-.26-.24-.25m38.47 5.31c-.03.5-.32.82-.85.93-.52.1-1.05.03-1.58.05-.16 0-.18-.08-.18-.2v-.96c.03-.26-.14-.69.06-.9.2-.2.63-.05.96-.06.28-.01.56 0 .84.1.51.17.78.54.75 1.04m-2.61-3.22c0-.89 0-.9.9-.88.23 0 .47 0 .7.05.4.08.64.36.67.73.03.46-.16.77-.58.9-.5.18-1.03.08-1.54.1-.14 0-.15-.1-.15-.2zm2.58 1.43c.77-.4 1.14-.98 1.04-1.8-.1-.86-.65-1.34-1.45-1.59a2.79 2.79 0 0 0 -.8-.12h-2.5c-.08 0-.19-.06-.21.08v.01l-.02.33v6.72c-.01.32.1.4.37.32h.13c.87.03 1.73.03 2.6-.01.1 0 .22.05.3-.05 1.05-.1 1.74-.66 1.92-1.54.1-.51.08-1-.18-1.47a1.84 1.84 0 0 0 -1.2-.88m5.84.91c-.14 0-.2-.02-.14-.18l.94-2.73.98 2.9zm1.54-4.36c-.27-.21-.74-.04-1.11-.07-.23-.02-.34.05-.43.28l-2.73 7.2 1.25.01c.19 0 .26-.06.32-.23l.47-1.4c.06-.18.13-.27.35-.27.75.02 1.5.02 2.26 0 .2 0 .3.07.36.27.15.47.32.93.48 1.4.04.11.05.23.23.23h1.42l-2.44-6.42c-.13-.35-.18-.8-.43-1m-77.26 4.36h-1.75l1-2.9.91 2.67c.07.19.02.24-.17.23m.44-3.34c-.14-.36-.16-.87-.47-1.04-.31-.16-.77-.03-1.16-.05-.18 0-.26.06-.32.22l-2.76 7.26c.44 0 .84-.01 1.23.01.22.01.3-.08.35-.27l.47-1.4c.06-.17.14-.23.32-.23.76.01 1.53.02 2.29 0 .22 0 .3.1.35.28.15.47.33.93.48 1.4.05.17.13.23.31.22.33-.01.67-.03 1 0 .32.03.33-.06.23-.33zm101.6 3.34c-.19 0-.24-.05-.18-.23l.93-2.67.98 2.9zm1.93-3.36c-.14-.35-.16-.84-.45-1.01-.3-.17-.74-.05-1.12-.05h-.08c-.16-.03-.24.04-.3.2l-2.76 7.28c.45 0 .85-.02 1.24 0 .2 0 .28-.06.34-.25.12-.42.3-.83.41-1.26.09-.3.22-.41.54-.4.54.04 1.08.02 1.63.02.76 0 .75 0 1.01.73.14.38.14.91.45 1.1.3.18.78.04 1.19.06.27.02.33-.04.22-.32zm-9.09 2.26c-.14-.2-.13-.32.04-.5.78-.84 1.55-1.7 2.32-2.57.06-.07.17-.1.14-.26-.41 0-.83.02-1.24 0-.21 0-.34.07-.47.22l-2.25 2.5c-.09.08-.15.21-.33.25v-.46-2.22c.01-.22-.05-.3-.28-.29-.3.02-.59.01-.88 0-.23 0-.29.09-.23.29l-.03 2.4.02 4.7c-.03.05 0 .06.03.06l.07.02h1.2l.06-.02c.06-.03.04-.06.01-.1.05-.76.04-1.53.01-2.3.09-.42.47-.61.71-.96l2.13 3.17c.08.1.12.23.3.23h1.55l-.2-.31zm17.24-.18c-.23-.08-.47-.14-.71-.2-.31-.07-.62-.14-.91-.28-.32-.16-.55-.39-.54-.77.02-.4.26-.63.61-.76.5-.18.96-.06 1.43.13.25.1.4.5.68.37.26-.1.43-.4.66-.58.2-.16.16-.27 0-.43-.95-1-3.03-1.12-4.08-.24-.3.24-.5.53-.62.9-.42 1.28.35 2.5 1.78 2.83.42.1.85.17 1.24.35.52.22.73.54.67 1.02-.06.46-.44.8-.96.87a2.27 2.27 0 0 1 -1.58-.37c-.25-.17-.4-.6-.72-.51-.28.08-.46.42-.72.61-.22.17-.15.28 0 .44a3.73 3.73 0 0 0 2.76 1.16c.15-.01.4-.02.64-.07 1.09-.2 1.9-1.04 1.99-2 .1-1.2-.46-2.05-1.62-2.47m-124.49-.02c-.22-.07-.45-.12-.68-.17-.3-.08-.62-.14-.9-.3-.4-.2-.58-.49-.54-.84.05-.33.33-.61.72-.71.49-.13.94-.02 1.39.2.2.1.35.43.59.35.22-.08.38-.33.57-.5.02-.03.03-.05.06-.06.28-.18.2-.33 0-.53-.88-.84-2.57-1.03-3.7-.4a2.02 2.02 0 0 0 -1 2.3c.25.96.95 1.45 1.88 1.66.4.1.81.17 1.2.34.51.22.71.54.65 1.02-.05.44-.4.78-.89.86-.6.1-1.13-.03-1.64-.37-.26-.16-.4-.6-.73-.5-.27.09-.46.42-.71.62-.19.15-.18.24-.02.4a3.66 3.66 0 0 0 3.42 1.12c1.11-.22 1.93-1.06 2-2.04.07-1.19-.5-2.04-1.67-2.44m31.24 3.41c.04-.3-.1-.33-.35-.33l-2.92.01c-.33.01-.43-.06-.43-.41.02-1.82 0-3.64.01-5.47 0-.26-.04-.38-.33-.35-.26.03-.52.02-.78 0s-.33.07-.33.33c.02 1.14 0 2.29 0 3.43 0 1.1.02 2.22 0 3.32 0 .31.05.42.4.42 1.26-.03 2.53-.01 3.8-.01.3 0 .68.09.86-.06.2-.17.03-.58.07-.88m-25.57-6.55a6.4 6.4 0 0 1 -.84 0c-.28-.02-.32.1-.32.34v6.83c0 .26.07.34.33.32.27-.02.54-.02.8 0 .2 0 .29-.04.29-.26v-6.98c0-.2-.07-.26-.26-.25m-6.17-.55c.15 0 .24-.06.33-.18l1.1-1.58c-.59.07-1.17-.2-1.54.48-.26.48-.3.45-.65 0-.13-.16-.2-.43-.43-.46-.35-.04-.7-.01-1.1-.01l.69.96c.58.84.58.83 1.6.8m23.75.83c.02-.08.04-.16-.02-.23v-.01c-.34-.1-.7-.01-1.05-.05-.26-.03-.34.06-.33.32v4.06c0 .22-.01.45-.05.66-.09.6-.36 1.07-.98 1.21-1.08.24-2.2.03-2.25-1.63v-.4-3.14c0-.35.16-.83-.08-1.02-.22-.17-.68-.04-1.04-.06-.2-.01-.3.04-.3.28.01 1.54 0 3.07.02 4.61a2.58 2.58 0 0 0 1.34 2.36c1.2.66 2.42.63 3.57-.1a2.44 2.44 0 0 0 1.14-1.97v-.11a103.77 103.77 0 0 0 .03-4.78m11.84.02c0-.08.03-.18-.04-.25h.01c-.37-.1-.75-.02-1.12-.06-.25-.02-.3.08-.24.3v7.08l-.02.02.02.04c.44.09.89.04 1.33.02.13-.06.06-.17.06-.25z"/></g></svg>