<svg height="26.41" viewBox="0 0 126 26.41" width="126" xmlns="http://www.w3.org/2000/svg"><g fill="#f35b1c"><path d="m21.55 17c.65-2.26 1.27-4.39 1.86-6.52.1-.35.22-.5.6-.47a14 14 0 0 0 1.45 0c.27 0 .36.05.27.33l-3.06 9.74c-.06.22-.16.32-.38.29h-.05c-.55 0-1.21.15-1.62-.09s-.38-.95-.54-1.46l-1.72-5.46-1.15 3.64c-.32 1-.64 2-.93 3-.1.32-.22.48-.59.44s-1.17.17-1.51-.08-.37-.92-.53-1.42c-.86-2.78-1.71-5.58-2.6-8.36-.15-.47 0-.53.4-.5a10.14 10.14 0 0 0 1.35 0c.37 0 .48.13.57.45.56 2 1.14 4 1.71 6.07 0 .12 0 .27.18.35.66-2.12 1.32-4.23 2-6.35.12-.41.27-.64.75-.57s1-.16 1.31.08.33.81.46 1.24l1.68 5.35zm31.8-6.18a4.58 4.58 0 0 1 7 1.47 6.25 6.25 0 0 1 .05 5.56 4.43 4.43 0 0 1 -3.07 2.51 6.76 6.76 0 0 1 -2.15.12 47.37 47.37 0 0 1 -3.74-.38c-.27 0-.35-.15-.35-.42v-13.4c0-.3.1-.36.37-.35h1.56c.29 0 .36.08.36.36v4zm1.65 7.63a3 3 0 0 0 3.46-1.93 3.75 3.75 0 0 0 .21-1.82 2.9 2.9 0 0 0 -4.72-2.22 1.14 1.14 0 0 0 -.63 1v4.52c0 .26.08.35.33.37q.67.01 1.35.08zm-9-7.72v-1-3.36c0-.33.09-.43.42-.41a11.06 11.06 0 0 0 1.41 0c.39 0 .46.11.46.47v12.85a4.17 4.17 0 0 0 0 .5c0 .24-.08.32-.31.35a37.09 37.09 0 0 1 -4.59.41 4.79 4.79 0 0 1 -4.94-4.43 6.68 6.68 0 0 1 .47-3.53 4.54 4.54 0 0 1 6.74-2c.05.06.12.17.34.15zm.05 5v-2.11a1.06 1.06 0 0 0 -.37-.89 3 3 0 0 0 -2.74-.77 3 3 0 0 0 -2.3 3.04 3.06 3.06 0 0 0 2.56 3.4 11.56 11.56 0 0 0 2.56-.1c.27 0 .26-.18.26-.37-.02-.73-.02-1.49-.02-2.24zm-40.72 4.76a8 8 0 0 1 -5.14-1.94c-.25-.2-.24-.33 0-.55a11 11 0 0 0 .91-1.13c.19-.26.31-.24.54 0a5.74 5.74 0 0 0 3.47 1.51 3 3 0 0 0 1.8-.38 1.68 1.68 0 0 0 .16-2.82 5.9 5.9 0 0 0 -2.17-.89 11.8 11.8 0 0 1 -2.08-.69 3.66 3.66 0 0 1 -2.37-3.92 3.88 3.88 0 0 1 2.9-3.51 6.82 6.82 0 0 1 6.1 1.29c.2.15.2.25.06.44-.32.43-.63.87-.91 1.33-.14.22-.24.18-.41 0a6.06 6.06 0 0 0 -2.78-1.14 2.8 2.8 0 0 0 -1.62.2 1.62 1.62 0 0 0 -1 1.37 1.56 1.56 0 0 0 .79 1.57 6.84 6.84 0 0 0 2.13.83 11.36 11.36 0 0 1 2.08.72 3.75 3.75 0 0 1 2.29 4 3.93 3.93 0 0 1 -3.08 3.5 6 6 0 0 1 -1.67.21zm89.87-.2h-2.34c-.26 0-.35-.14-.47-.31-.83-1.25-1.69-2.49-2.5-3.75-.23-.36-.32-.28-.6 0a2.8 2.8 0 0 0 -1.07 2.72c.06.43.21 1-.08 1.29s-.83.08-1.26.08c-.9 0-.9 0-.9-.92v-12.95c0-.38.08-.53.48-.5a7.72 7.72 0 0 0 1.36 0c.36 0 .43.1.43.45v7.63c0 .14-.06.3.08.47l1.78-2 2-2.21a.69.69 0 0 1 .6-.27h2.29c0 .23-.19.31-.3.42-1.06 1.14-2.12 2.28-3.2 3.4a.52.52 0 0 0 -.06.79c1.17 1.71 2.31 3.44 3.46 5.16.1.14.17.28.3.5zm-25.81-5.97a1.9 1.9 0 0 0 -1.53-2.26 5.44 5.44 0 0 0 -3.23.39c-.34.14-.52.13-.58-.27a4.48 4.48 0 0 0 -.2-.62c-.29-.88-.29-.89.57-1.2a7.71 7.71 0 0 1 4.38-.36 3.47 3.47 0 0 1 2.82 3.29c.15 2.14 0 4.28.07 6.42 0 .24-.1.32-.32.35a34.14 34.14 0 0 1 -5.35.4 3.21 3.21 0 0 1 -3.13-4.35 3.26 3.26 0 0 1 3.11-2.11 8.06 8.06 0 0 1 3.39.32zm.11 2.95v-1a.33.33 0 0 0 -.25-.37 5.67 5.67 0 0 0 -3-.21 1.51 1.51 0 0 0 .22 3 17.24 17.24 0 0 0 1.76 0c1.23-.05 1.23-.06 1.23-1.31zm-36.83-1.27h-3.21c-.35 0-.38.1-.31.4a2.67 2.67 0 0 0 2.48 2.11 5 5 0 0 0 3.07-.74c.21-.14.33-.17.4.13s.2.6.3.91c.22.68.24.7-.44 1-2.12 1-4.24 1.13-6.2-.34-2.81-2.1-2.57-7 .38-8.94a4.58 4.58 0 0 1 7 3.06 8.3 8.3 0 0 1 .2 2c0 .33-.12.42-.44.41zm-1.14-1.56h2.21c.18 0 .35.05.34-.26a2.6 2.6 0 0 0 -2.26-2.42 2.65 2.65 0 0 0 -2.74 2.44c0 .3.15.24.3.24zm42.83.84v-4.62c0-.23 0-.39.31-.44a29.69 29.69 0 0 1 5.24-.39 3.24 3.24 0 0 1 3.28 3.09 33.48 33.48 0 0 1 .06 3.47v3.51c0 .31-.08.41-.39.4a11.85 11.85 0 0 0 -1.46 0c-.34 0-.45-.08-.44-.44v-5.37a3.75 3.75 0 0 0 -.22-1.33 1.91 1.91 0 0 0 -1.84-1.3c-.62 0-1.23.06-1.85.09-.36 0-.43.16-.43.49v7.38c0 .36-.07.51-.46.48a10.16 10.16 0 0 0 -1.46 0c-.31 0-.39-.09-.39-.4.06-1.54.05-3.08.05-4.62zm51.64-2.1a13.18 13.18 0 1 1 -13.16-13.18 13.2 13.2 0 0 1 13.16 13.18zm-13.18 12.9a12.88 12.88 0 1 0 -12.82-12.91 12.85 12.85 0 0 0 12.82 12.91z"/><path d="m112.82 26.08a12.88 12.88 0 1 1 12.85-12.85 12.89 12.89 0 0 1 -12.85 12.85zm-5.13-4.58c.17.37 0 .75.06 1.13a.38.38 0 0 0 .25.37c.22.08.24-.12.31-.23.23-.37.44-.75.66-1.13.06-.11.14-.22 0-.32s-.24 0-.31.13l-.52.9v-1.21c0-.36-.14-.31-.3-.39s-.25.1-.32.21l-.65 1.13c-.07.12-.15.22 0 .33s.22 0 .31-.12a3.11 3.11 0 0 1 .51-.8zm7-2.7a.31.31 0 0 0 0-.33c-.19-.57-.19-.57.43-.58h1.55a5 5 0 0 0 -1.17-.6c-.22-.1-.46-.18-.56-.45a6.7 6.7 0 0 1 -.48-2.5c0-.6.2-.68.74-.43a1 1 0 0 1 .53.69c.14.41.37.64.87.5.32-.09.69-.17.94.22.07.12.21.1.3 0 .21-.27.38-.24.57 0s.44.29.7 0c.43-.44.71-.45 1.14 0s.78.21 1.18.15c0 0 .1 0 .1-.12 0-.35.26-.5.49-.27a.53.53 0 0 0 .59.12c.37-.07.6-.45 1-.42.09 0 .13-.13.13-.24 0-.45-.87-1.24-1.21-1s-.69 0-1-.13c-.07 0-.18 0-.19-.13a.22.22 0 0 1 .16-.23c.27-.09.55-.15.82-.24s.42-.14.44-.42a.6.6 0 0 0 -.34-.66.58.58 0 0 1 -.39-.47c0-.3-.16-.43-.45-.2-.11.09-.24.15-.36 0s0-.23 0-.32c.24-.38.06-.57-.3-.71s-.38-.22-.11-.49c.41-.43.33-.8-.21-1.07a2.91 2.91 0 0 1 -1-.53.56.56 0 0 0 -.75-.14c-.1.05-.22.14-.32 0s0-.22 0-.33.24-.44 0-.48c-.5-.12-.48-.6-.73-.87a2.35 2.35 0 0 1 -.55-1.42c0-.49-.46-.55-.75-.77s-.41 0-.56.16-.2.07-.33.06a1.31 1.31 0 0 1 -1.17-.78 1 1 0 0 0 -1.6-.11c-.15.18-.26.15-.41 0a.32.32 0 0 0 -.52 0 .45.45 0 0 1 -.32.11 2.36 2.36 0 0 0 -2.24 1.07.23.23 0 0 1 -.29.12c-.27-.07-.36.08-.5.28a1.08 1.08 0 0 0 -.21 1.26c.07.12 0 .33-.05.49-.07.35-.24.45-.48.14s-.31-.32-.49-.13-.84.49-.64 1.1a.25.25 0 0 1 -.2.35c-.21 0-.24-.14-.28-.28s0-.28-.18-.33c-.37-.11-1.18.52-1.15.91s0 .47-.37.51-.22.19-.2.41c0 .38.7.9-.19 1.13v.09c-.07.3-.1.54.31.64.63.15.64.23.2.72l-.12.16c-.15.21-.25.19-.32-.06s0-.37-.31-.28-.39.08-.39.37-.14.41-.38.14c-.1-.11-.17-.25-.37-.16a.94.94 0 0 0 -.44.64c-.06.19.14.2.25.25s.22.06.2.18a.22.22 0 0 1 -.22.17c-.33 0-.43.25-.63.45s-.06.53-.12.78-.19.24 0 .34.38.16.51 0a.35.35 0 0 1 .52-.07c.16.11.32 0 .47-.06s.35-.18.52-.29.36 0 .51.08 0 .24 0 .36-.12.21 0 .33a1.27 1.27 0 0 0 1.32.18.43.43 0 0 1 .68 0 3.32 3.32 0 0 0 1.4.08s.09-.07.09-.12c.09-.51.46-.45.81-.39a1.37 1.37 0 0 0 1.09-.23c-.32-.22-.53-.5-.17-.76s.78-.16 1.13-.38c.07-.05.17.06.22.15a1.1 1.1 0 0 1 .12.59 12.77 12.77 0 0 1 -.36 2 1.13 1.13 0 0 1 -.77.83 2.49 2.49 0 0 0 -1.22.7 6.62 6.62 0 0 1 1.6-.13c.67 0 .67 0 .51.62 0 .08-.07.16.1.24a3.15 3.15 0 0 1 3.87.24zm-3 4.33c0 .9 0 .9.88.92h.3c.13 0 .24 0 .23-.18s-.1-.15-.21-.15h-.64c-.12 0-.24 0-.23-.18s0-.25.23-.24h.55a.13.13 0 0 0 .15-.15.13.13 0 0 0 -.14-.16h-.55c-.14 0-.21-.07-.2-.22s.06-.22.21-.21h.65c.13 0 .18-.06.18-.18a.14.14 0 0 0 -.16-.15h-.3c-.93-.04-.93-.04-.94.9zm8.55-4.52a.82.82 0 0 0 -.8.81 1.11 1.11 0 0 0 1.07 1 .73.73 0 0 0 .75-.76 1.12 1.12 0 0 0 -1.01-1.05zm-3.13 4.47a.9.9 0 0 0 .79-.51.46.46 0 0 0 -.33-.63c-.08 0-.16 0-.11-.16a.39.39 0 0 0 -.22-.54.72.72 0 0 0 -.74.14c-.67.51.36.87.13 1.38-.08.18.27.29.49.32zm-12.21-2.67c.48.05.65-.33.43-1 0-.15-.2-.34 0-.43s.28.12.34.28a.8.8 0 0 0 .1.23.22.22 0 0 0 .18 0c.09 0 .11-.07.1-.14a.9.9 0 0 0 -.43-.7.51.51 0 0 0 -.61 0c-.24.19-.18.44-.12.69s.33.49 0 .6-.35-.25-.42-.48a.2.2 0 0 0 -.26-.16c-.08 0-.1.06-.11.14a1 1 0 0 0 .81.97zm14.25 1.08c-.07-.23.06-.41.07-.61s-.09-.66-.46-.73a.65.65 0 0 0 -.77.48c0 .11-.14.26 0 .34s.24 0 .29-.19.19-.31.37-.25.18.26.16.43-.09.49-.14.74-.07.3.08.41.23-.07.33-.14a2.84 2.84 0 0 0 .47-.37c.1-.1.37-.13.22-.36s-.27 0-.4.08a2.79 2.79 0 0 0 -.21.17zm-8.77 1.93c-.39 0-.66-.12-.7-.54a.57.57 0 0 1 .25-.57.58.58 0 0 1 .74.08c.13.11.24.12.34 0s0-.21-.12-.28a1 1 0 0 0 -1.51 1.13.91.91 0 0 0 1 .51c.11 0 .31 0 .3-.19s-.14-.17-.29-.14zm5.52-.09c-.11-.36-.22-.77-.36-1.18 0-.13 0-.35-.21-.33a.71.71 0 0 0 -.51.29c-.09.1 0 .29.1.25.38-.15.31.18.37.33a7.49 7.49 0 0 1 .23.81c0 .16.16.14.28.11s.14-.12.11-.28zm-8.84-3.26-.23-.13c-.13-.06-.18.06-.24.13l-.87 1c-.08.1-.2.18 0 .32s.23.06.32-.05l.87-1z"/><path d="m111.89 11c.17-.38.12-.67-.35-.81-.08 0-.08-.27 0-.28.32 0 .44-.27.58-.49a.2.2 0 0 1 .26-.1c.09 0 .08.14.07.21a1.28 1.28 0 0 0 .24.85s.07.1.06.13c-.17.58-.32 1.17-.52 1.74 0 .15-.23 0-.33 0a10.24 10.24 0 0 0 -2-1.24c-.07 0-.17-.07-.14-.18s.08-.09.14-.12c.27-.14.54-.23.8.05a6.36 6.36 0 0 0 .66.61.38.38 0 0 0 .46 0c.18-.15.18-.27.07-.37zm.27 3.08h1.7c.12 0 .13.11.11.23a4.24 4.24 0 0 0 .22 2.63.27.27 0 0 1 0 .37 2.35 2.35 0 0 1 -.59-1.15.54.54 0 0 1 0-.25c.07-.88-.1-1.57-1.17-1.65-.16.01-.23-.05-.27-.18zm2.22-1.16c.56-.55.85-1.35 1.68-1.58a1 1 0 0 1 .94.23c.09.08.27.07.23.26s-.17.23-.31.29-.29 0-.35-.11c-.15-.38-.21-.19-.48 0a1.62 1.62 0 0 0 -.74.77c-.15.22-.63.02-.97.14zm-3.06-.05a.54.54 0 0 1 -.52 0 1.21 1.21 0 0 0 -1.3.23.55.55 0 0 1 -.73.05 2.1 2.1 0 0 0 -.58-.29c-.1 0-.21 0-.2-.17s.16-.14.27-.15a.34.34 0 0 1 .2 0 1 1 0 0 0 1.23-.4c.19-.22.52 0 .74.08a8.08 8.08 0 0 1 .89.65zm5.96-6.43a.37.37 0 0 1 -.21-.33c0-.42-.32-.32-.6-.38s.17-.51-.21-.64c-.13 0-.31-.12-.38 0-.26.38-.6.14-.9.13-.14 0-.27 0-.29-.21s0-.28.12-.35a.28.28 0 0 1 .36.07c.21.31.39.16.61 0a.56.56 0 0 1 .94.19 2.43 2.43 0 0 0 .4.51.78.78 0 0 1 .16 1.01zm-3.93 6.07a1.48 1.48 0 0 1 .19-1.2c.26-.43.87-.61.85-1.23 0-.23.3-.31.46-.29s.07.27.08.42a8.28 8.28 0 0 1 -1.58 2.3zm-.43-7.61a1.17 1.17 0 0 0 -1.3.37c-.1.08-.18.09-.25 0s-.15-.26 0-.36a.49.49 0 0 0 .14-.53c0-.17.13-.3.3-.34s.19.11.23.24.16.26.25.15c.4-.5.86.29 1.25-.08 0 0 .1.07.11.14a.26.26 0 0 1 -.14.29zm-5.4 2.98a.38.38 0 0 1 .49-.4.7.7 0 0 0 .74-.24c.15-.15.33-.2.46 0s-.1.22-.21.3-.3.32-.58.33-.73 0-.31.52c.11.12.07.24-.1.23a1.63 1.63 0 0 0 -.77.31c-.13.07-.26.18-.42.1a.2.2 0 0 1 -.09-.22.39.39 0 0 1 .36-.28c.28-.03.59-.11.43-.65zm9.31.36s.08.07.07.1c0 .52.27.24.46.21l.25-.06c.22 0 .58-.13.63.1s-.35.11-.51.24c-.39.33-1 .2-1.36.57 0 0-.14.06-.17 0a.34.34 0 0 1 -.06-.37c.16-.28.45-.48.58-.79zm-8.74 1.3c-.7 0-1.08.87-1.89.61-.31-.1-.36.42-.68.43a.74.74 0 0 1 .77-.8 1.36 1.36 0 0 0 .86-.32.65.65 0 0 1 .94.08zm10.52-1.14a1.13 1.13 0 0 1 1.62 1c0 .17.28.4 0 .48s-.38-.18-.42-.41a1.16 1.16 0 0 0 -1.2-1.07zm-4.41.24a1.71 1.71 0 0 1 -.53 1.28c-.11.16-.3 0-.31-.14a2.1 2.1 0 0 0 -.34-1 .25.25 0 0 1 .11-.38c.16-.06.18.1.23.2.19.46.44.55.84.04zm-5.12-2.91c.1-.2.06-.54.46-.49s.38-.17.52-.33.16-.22.28-.09a.22.22 0 0 1 0 .35.9.9 0 0 1 -.28.2c-.54.21-.58.61-.43 1.08 0 .08.08.15 0 .19a.17.17 0 0 1 -.21-.09 3.06 3.06 0 0 1 -.34-.82zm5.43 2.19a2.19 2.19 0 0 0 -1.25-1.36c-.08 0-.17-.08-.12-.17a.29.29 0 0 1 .34-.14 1.25 1.25 0 0 1 1.03 1.67zm6.61 4.87a.63.63 0 0 0 -.33-.84c-.4-.2-.44-.46-.06-.8.09.52.8.61.75 1.22a.47.47 0 0 1 -.36.42zm-1.41 1.74s0-.13.06-.14c.5-.13 1-.08 1.53-.22.11 0 .27.16.09.26-.35.2-.68.55-1.16.25a2 2 0 0 0 -.52-.15zm-4.51-5.86c0-.23 0-.42.22-.54a.52.52 0 0 0 .21-.44c0-.15-.07-.35.17-.39s.22 0 .2.1.3.4 0 .58a1 1 0 0 0 -.5.76.2.2 0 0 1 -.23.15c-.1-.02-.06-.15-.07-.22zm-7.79 3.06c-.07 0-.21 0-.23-.13s.13-.19.25-.21c.29 0 .59 0 .7-.41 0-.12.26-.09.38 0s.06.23 0 .34a1.6 1.6 0 0 1 -1.1.41zm-1.93 3.16c-.18 0-.4 0-.43-.25s-.06-.53-.39-.62c-.08 0-.1-.12 0-.2a.16.16 0 0 1 .25-.07.86.86 0 0 1 .41.47c.06.16.11.31.3.36s.21.07.19.19-.23.1-.33.12z"/><path d="m112.89 15a9.3 9.3 0 0 0 .11 2c-.49-.25-.57-1.44-.11-2zm-3.69-6.18a.75.75 0 0 1 .68.57c.05.14 0 .16-.17.16-.39 0-.92-.29-.89-.5s.18-.21.38-.23zm-3.69 2.65a.59.59 0 0 1 0 .83l-.31.44c-.07.09 0 .34-.2.24a.27.27 0 0 1 -.05-.46 1.71 1.71 0 0 0 .56-1.05zm6.17-4.9c.1-.25 0-.67.48-.66a.36.36 0 0 1 .22.08.13.13 0 0 1 -.08.2c-.22.08-.19.28-.23.45s0 .37-.2.36-.17-.25-.19-.43zm-4.98 6.21c0 .17-.07.31-.23.29a.52.52 0 0 1 -.48-.48c0-.19.12-.44.28-.39s.34.36.43.58zm10.11-5.57c-.39-.14-.49-.53-.71-.81-.07-.08.05-.17.17-.16s.47 0 .48.31a5.39 5.39 0 0 0 .06.66zm1.37 4.52c.21-.39.32-.68.6-.83.13-.07.32-.15.42 0s0 .32-.14.39a6.38 6.38 0 0 1 -.88.44zm-2.71-5.4c0 .17-.15.34-.26.28a.88.88 0 0 1 -.46-.57c0-.15.18-.21.34-.2.32 0 .3.28.38.49zm4.25 7.02c0 .15 0 .25-.11.29s-.21-.06-.26-.15a1.21 1.21 0 0 0 -.35-.49c-.07-.06-.18-.13-.09-.24s.15 0 .23 0c.38.07.47.36.58.59zm-1.79.98.89-.17c.09 0 .22 0 .23.13a.47.47 0 0 1 -.12.41c-.11.1-.19 0-.26 0s-.49-.16-.74-.37zm-10.81.76c-.24 0-.51 0-.55-.3s.22-.2.34-.16.61-.06.65.28-.27.16-.44.18zm11.8-6.09a.85.85 0 0 1 .36 1c-.06.2-.34 0-.63.06.35-.33.35-.63.27-1.06zm-15.09 4.81a.81.81 0 0 1 -.58.42c-.13 0-.19-.12-.17-.24 0-.35.35-.29.56-.37s.17.07.19.19zm6.69-7.36c.11 0 .26.1.18.22a.49.49 0 0 0 0 .47c0 .08 0 .2-.09.24a.22.22 0 0 1 -.21-.1.77.77 0 0 1 -.09-.66.19.19 0 0 1 .21-.17zm6.48 4.55a1.64 1.64 0 0 1 .87-.31c-.17.62-.26.66-.87.31zm-5.75-2.88a.78.78 0 0 1 .45.47.2.2 0 0 1 -.22.26c-.3 0-.3-.31-.37-.52s-.03-.2.14-.21zm5.17 1.74c.16 0 .23.11.19.22s-.13.46-.41.49-.21-.08-.18-.22a.72.72 0 0 1 .4-.49zm-7.76 4.37c0 .21 0 .39-.19.42s-.29-.06-.23-.16 0-.55.27-.59-.05.3.15.33zm9.18-4.06c-.21 0-.24-.15-.2-.26s.08-.45.36-.48a.16.16 0 0 1 .18.22.69.69 0 0 1 -.34.52zm-3.84-6.17a.38.38 0 0 1 -.35-.33c0-.19.16-.18.29-.17s.39 0 .37.29-.12.21-.31.21zm6.35 6.74c0 .19-.12.23-.26.19s-.36 0-.35-.2.13-.37.32-.38.22.24.29.39zm-8.41 5.53a.65.65 0 0 1 -.19.8c0 .05-.16 0-.16 0a1.41 1.41 0 0 1 .35-.8zm-2.1-8.61c.2.09.44.15.5.41 0 .11-.1.17-.2.16a.7.7 0 0 1 -.51-.43c-.04-.1.09-.15.21-.14zm-3.73 6.17c0 .1 0 .33-.16.3a.54.54 0 0 1 -.39-.42c0-.15.09-.25.24-.25s.29.16.31.37zm10.06-.83c.22 0 .31.21.36.41s0 .27-.13.24a.56.56 0 0 1 -.45-.41c-.03-.1.05-.18.22-.24zm2 .38a.53.53 0 0 1 -.43.38c-.09 0-.19 0-.16-.13a.67.67 0 0 1 .46-.42c.09-.03.12.08.13.17zm-.56-5.38c-.13 0-.13-.13-.11-.22s.13-.38.38-.36.19.07.14.19a.64.64 0 0 1 -.41.39zm-11.43 1c-.37.11-.57 0-.7-.2a.17.17 0 0 1 .12-.2c.31-.08.4.2.58.4zm8.08-3.61a.51.51 0 0 1 -.61 0c-.05 0 0-.14 0-.17.28-.14.45-.05.61.17zm-7.12 8a.56.56 0 0 1 .07.74h-.13c-.19-.24-.08-.46.06-.74zm-.56-2.31c0 .13-.06.2-.16.17a.42.42 0 0 1 -.32-.34.12.12 0 0 1 .16-.13c.16.06.3.14.32.3zm13.84 2a.45.45 0 0 1 .41.39c0 .08-.08.12-.14.11-.23-.08-.27-.26-.27-.5zm-3.33 1.3c-.07.16-.14.3-.34.31s-.23 0-.21-.14a.36.36 0 0 1 .34-.3c.12-.01.21-.01.21.13zm5.38.4a.19.19 0 0 1 -.2-.21c0-.15.16-.15.26-.18a.14.14 0 0 1 .2.15c.01.16-.09.23-.26.24zm-11.93-8.96a.49.49 0 0 1 .33-.25c.11-.05.16 0 .15.12a.28.28 0 0 1 -.25.26c-.1.05-.2-.01-.23-.13zm-2.85 15.68v-.07.06h-.06zm13.23-1.81a.35.35 0 0 1 -.39.34.76.76 0 0 1 -.7-.65c0-.25.15-.36.38-.37a.85.85 0 0 1 .71.68zm-3.74 3.05c-.13 0-.27 0-.24-.23a.37.37 0 0 1 .38-.28.23.23 0 0 1 .25.25c-.03.19-.19.26-.39.26zm-.29-.74c-.13 0-.23-.05-.24-.19s.12-.26.28-.28a.18.18 0 0 1 .22.19.24.24 0 0 1 -.26.28z"/></g></svg>