<svg xmlns="http://www.w3.org/2000/svg" width="170.1" height="100.03" viewBox="0 0 170.1 100.03" class="" style="max-width: 52px; min-width: 52px; height: auto;"><path fill="#fff" d="M94.6 99.33l-8.9-12.1-8.9 12.1h-3.7l10.7-14.6-9.8-13.3h3.7l8 10.8 8-10.8h3.7l-9.8 13.3 10.7 14.6zm-69.4 0l-10.8-14.6 9.8-13.3h-3.7l-8 10.8-8-10.8H.9l9.8 13.3L0 99.33h3.7l8.9-12.1 8.9 12.1zm22.8-8.2c0 5-3.8 8.2-10 8.2H26.7v-13.1h-5.8c.4-.6 1.5-2.2 2-2.8h3.8v-12H38c8.4 0 9.1 5.8 9.1 7.6a6.26 6.26 0 01-3.4 5.6 9.4 9.4 0 011.8 1.2 6.6 6.6 0 012.5 5.3m-18.2-7.7H38c3.8 0 5.9-1.8 5.9-4.7 0-3.9-3.7-4.4-5.9-4.4h-8.2zm15 7.7c0-4-3.7-4.9-6.8-4.9h-8.2v10.2H38c2.6 0 6.8-.7 6.8-5.3m31.2-5.8c0 8.6-5.5 14.6-13.3 14.6s-13.3-6-13.3-14.6 5.5-14.6 13.3-14.6c7.9 0 13.3 6 13.3 14.6m-3.2 0c0-6.9-4.2-11.6-10.1-11.6-6 0-10.2 4.8-10.2 11.6s4.2 11.7 10.2 11.7 10.1-4.8 10.1-11.7m86.8-14.6c-6.6 0-10.4 5.3-10.4 14.6s3.8 14.6 10.4 14.6a9.06 9.06 0 008.4-4.9 21.19 21.19 0 002.1-9.8c-.1-4.2-1.1-14.5-10.5-14.5m0 26.8a6.4 6.4 0 01-4.7-1.8c-2.7-2.7-3.1-7.6-3.1-10.3 0-3.6.8-12.1 7.7-12.1 7 0 7.7 8.5 7.7 12.1.1 3.6-.7 12.1-7.6 12.1m-22.4-17.1a9.24 9.24 0 00-7.5 3.9c.4-5.3 2.1-11.1 7.8-11.1a6.08 6.08 0 016.2 5.3l.1.5h2.7l-.1-.7c-.5-4.7-3.9-7.7-8.9-7.7-8.8 0-10.6 8.7-10.6 16 0 8.7 3.6 13.3 10.3 13.3a9.75 9.75 0 000-19.5m0 17.1a7.3 7.3 0 010-14.6 6.74 6.74 0 014.8 2 7.73 7.73 0 012.2 5.4 7.07 7.07 0 01-7 7.2m-12.4-6.1c0 5.2-3.9 8.6-9.9 8.6-3.3 0-5.9-1-7.6-2.8a9.8 9.8 0 01-2.4-7.3v-.6h2.7v.6a7.08 7.08 0 001.8 5.5 7.57 7.57 0 005.5 2c3.6 0 7.2-2.1 7.2-6.1a5.12 5.12 0 00-1.5-3.9 8.43 8.43 0 00-5.7-1.7H113v-2.6h1.9c1.3 0 3.9-.3 5.3-1.7a4.52 4.52 0 001.3-3.3c0-3.2-3.3-4.9-6.6-4.9a6.09 6.09 0 00-6.2 5.4l-.1.5H106l.1-.7c.5-4.7 3.9-7.7 8.9-7.7 3 0 5.7.9 7.3 2.6a6.55 6.55 0 011.9 4.9 6.64 6.64 0 01-3.9 6.2 7.17 7.17 0 014.5 7m-43-27.51a32.34 32.34 0 01-14.2-5c-3.6-2.3-4.4-3.3-4.4-5.2 0-3.9 4.2-10.6 11.5-18.3 4.1-4.4 9.9-9.5 10.5-9.4 1.2.3 10.9 9.7 14.5 14.1 5.7 7 8.3 12.8 7 15.3-1 1.9-7.3 5.8-11.9 7.2a35.6 35.6 0 01-13 1.3zm-23.5-14.3c-3-4.6-4.5-9.1-5.2-15.6-.2-2.2-.2-3.4.5-7.8a31.9 31.9 0 017.8-15.8c1.6-1.7 1.7-1.7 3.7-1.1 2.4.8 4.9 2.6 8.9 6.1l2.3 2.1-1.3 1.6c-5.8 7.2-12 17.3-14.3 23.6-1.3 3.4-1.8 6.8-1.2 8.3.4.9.1.5-1.2-1.4zm52.5.8c.3-1.4-.1-4.1-1-6.8-1.9-5.8-8.2-16.5-14-23.8l-1.8-2.3 2-1.8a42.2 42.2 0 016.3-5 11.33 11.33 0 014.6-1.8c.6 0 2.6 2.1 4.3 4.4a35.47 35.47 0 015.4 12.4 40.87 40.87 0 01.1 12.1 37.43 37.43 0 01-2.4 7.6 36 36 0 01-3.3 5.6c-.5.5-.5.5-.2-.6zM82.3 7.82a38.3 38.3 0 00-9.1-3.2c-.8-.1-2.2-.2-3-.2-1.9.1-1.8 0 1.2-1.4a30.07 30.07 0 017.5-2.5 36.87 36.87 0 0112.4 0 34.43 34.43 0 019.7 3.6l.7.4-1.5-.1c-3.2-.1-7.7 1.1-12.5 3.4-1.4.7-2.7 1.3-2.7 1.3-.1 0-1.3-.6-2.7-1.3z"></path></svg>