<svg xmlns="http://www.w3.org/2000/svg" fill="none" viewBox="0 0 31 32" class="" style="width:auto;height:32px"><g fill="currentColor" clip-path="url(#svg-270dd3abb3df62a6d06130d12a1536e8__a)"><path d="M26.088 25.289c-12.234 5.822-19.826.95-24.687-2.008-.3-.186-.812.044-.368.553 1.62 1.963 6.926 6.695 13.852 6.695 6.931 0 11.054-3.782 11.57-4.441.513-.655.15-1.015-.367-.8Zm3.436-1.898c-.329-.427-1.998-.507-3.048-.378-1.052.125-2.632.768-2.494 1.154.07.145.214.08.937.015.724-.072 2.755-.329 3.178.224.425.557-.648 3.21-.844 3.638-.189.428.073.538.428.253.35-.285.985-1.023 1.411-2.066.423-1.05.681-2.514.432-2.84Z"></path><path fill-rule="evenodd" d="M17.862 13.408c0 1.528.039 2.802-.733 4.159-.624 1.103-1.611 1.781-2.714 1.781-1.506 0-2.383-1.147-2.383-2.84 0-3.342 2.995-3.949 5.83-3.949v.85Zm3.954 9.558c-.259.232-.634.248-.926.094-1.302-1.081-1.533-1.583-2.25-2.614-2.151 2.195-3.674 2.851-6.464 2.851-3.298 0-5.868-2.035-5.868-6.11 0-3.183 1.726-5.35 4.18-6.41 2.129-.937 5.102-1.102 7.374-1.362v-.507c0-.932.072-2.035-.474-2.84-.48-.723-1.396-1.02-2.201-1.02-1.494 0-2.83.766-3.155 2.354-.066.353-.325.7-.678.717L7.55 7.711c-.32-.072-.673-.33-.585-.822.877-4.61 5.04-6 8.769-6 1.908 0 4.401.507 5.907 1.952C23.548 4.623 23.366 7 23.366 9.586v6.111c0 1.837.761 2.642 1.478 3.635.254.353.309.777-.011 1.042a166.1 166.1 0 0 0-3.006 2.603l-.01-.01" clip-rule="evenodd"></path><path d="M26.088 25.289c-12.234 5.822-19.826.95-24.687-2.008-.3-.186-.812.044-.368.553 1.62 1.963 6.926 6.695 13.852 6.695 6.931 0 11.054-3.782 11.57-4.441.513-.655.15-1.015-.367-.8Zm3.436-1.898c-.329-.427-1.998-.507-3.048-.378-1.052.125-2.632.768-2.494 1.154.07.145.214.08.937.015.724-.072 2.755-.329 3.178.224.425.557-.648 3.21-.844 3.638-.189.428.073.538.428.253.35-.285.985-1.023 1.411-2.066.423-1.05.681-2.514.432-2.84Z"></path><path fill-rule="evenodd" d="M17.862 13.408c0 1.528.039 2.802-.733 4.159-.624 1.103-1.611 1.781-2.714 1.781-1.506 0-2.383-1.147-2.383-2.84 0-3.342 2.995-3.949 5.83-3.949v.85Zm3.954 9.558c-.259.232-.634.248-.926.094-1.302-1.081-1.533-1.583-2.25-2.614-2.151 2.195-3.674 2.851-6.464 2.851-3.298 0-5.868-2.035-5.868-6.11 0-3.183 1.726-5.35 4.18-6.41 2.129-.937 5.102-1.102 7.374-1.362v-.507c0-.932.072-2.035-.474-2.84-.48-.723-1.396-1.02-2.201-1.02-1.494 0-2.83.766-3.155 2.354-.066.353-.325.7-.678.717L7.55 7.711c-.32-.072-.673-.33-.585-.822.877-4.61 5.04-6 8.769-6 1.908 0 4.401.507 5.907 1.952C23.548 4.623 23.366 7 23.366 9.586v6.111c0 1.837.761 2.642 1.478 3.635.254.353.309.777-.011 1.042a166.1 166.1 0 0 0-3.006 2.603l-.01-.01" clip-rule="evenodd"></path></g><defs><clipPath id="svg-270dd3abb3df62a6d06130d12a1536e8__a"><path fill="currentColor" d="M.07.889h30.222v30.222H.07z"></path></clipPath></defs></svg>